<?xml version="1.0" encoding="UTF-8"?>
<svg xmlns="http://www.w3.org/2000/svg" version="1.1" width="100" height="100" viewBox="0 0 100 100"><rect x="0" y="0" width="100" height="100" fill="#ffffff"/><g transform="scale(3.448)"><g transform="translate(0,0)"><path fill-rule="evenodd" d="M10 0L10 2L11 2L11 0ZM12 0L12 1L13 1L13 0ZM16 0L16 1L15 1L15 2L14 2L14 3L13 3L13 2L12 2L12 4L14 4L14 8L13 8L13 9L12 9L12 7L13 7L13 5L11 5L11 6L10 6L10 4L11 4L11 3L8 3L8 4L9 4L9 5L8 5L8 7L9 7L9 8L6 8L6 9L10 9L10 11L11 11L11 9L12 9L12 10L14 10L14 11L15 11L15 12L13 12L13 11L12 11L12 13L14 13L14 15L16 15L16 16L17 16L17 18L14 18L14 16L13 16L13 17L12 17L12 15L13 15L13 14L10 14L10 16L6 16L6 17L5 17L5 18L6 18L6 19L5 19L5 20L4 20L4 21L5 21L5 20L6 20L6 21L8 21L8 23L9 23L9 24L8 24L8 29L10 29L10 28L9 28L9 24L10 24L10 23L9 23L9 21L10 21L10 22L11 22L11 25L10 25L10 27L11 27L11 25L12 25L12 28L13 28L13 29L16 29L16 28L17 28L17 29L18 29L18 28L17 28L17 25L18 25L18 24L15 24L15 23L16 23L16 22L17 22L17 21L18 21L18 20L19 20L19 21L20 21L20 22L18 22L18 23L19 23L19 24L20 24L20 25L23 25L23 26L20 26L20 28L19 28L19 29L20 29L20 28L22 28L22 29L27 29L27 28L28 28L28 26L29 26L29 24L28 24L28 23L27 23L27 22L29 22L29 20L28 20L28 19L27 19L27 16L28 16L28 15L27 15L27 14L25 14L25 13L27 13L27 12L28 12L28 11L27 11L27 12L26 12L26 11L25 11L25 13L24 13L24 14L23 14L23 13L22 13L22 12L24 12L24 11L22 11L22 12L21 12L21 11L20 11L20 12L17 12L17 11L16 11L16 10L21 10L21 9L22 9L22 10L25 10L25 9L26 9L26 8L25 8L25 9L24 9L24 8L23 8L23 9L22 9L22 8L20 8L20 7L21 7L21 5L20 5L20 3L21 3L21 2L19 2L19 1L21 1L21 0L18 0L18 1L17 1L17 0ZM8 1L8 2L9 2L9 1ZM16 1L16 2L15 2L15 3L16 3L16 4L15 4L15 5L16 5L16 4L17 4L17 3L18 3L18 4L19 4L19 2L17 2L17 1ZM16 2L16 3L17 3L17 2ZM18 5L18 6L17 6L17 8L16 8L16 9L14 9L14 10L16 10L16 9L17 9L17 8L18 8L18 9L20 9L20 8L19 8L19 7L20 7L20 5ZM9 6L9 7L10 7L10 6ZM11 6L11 7L12 7L12 6ZM15 6L15 7L16 7L16 6ZM18 6L18 7L19 7L19 6ZM0 8L0 10L2 10L2 11L0 11L0 12L1 12L1 13L0 13L0 15L1 15L1 16L0 16L0 21L1 21L1 16L2 16L2 14L3 14L3 15L4 15L4 14L5 14L5 13L7 13L7 14L6 14L6 15L7 15L7 14L9 14L9 13L11 13L11 12L9 12L9 10L5 10L5 8ZM10 8L10 9L11 9L11 8ZM27 8L27 9L28 9L28 10L29 10L29 9L28 9L28 8ZM3 9L3 10L4 10L4 9ZM2 11L2 13L3 13L3 12L7 12L7 13L8 13L8 11ZM16 12L16 13L15 13L15 14L16 14L16 13L17 13L17 12ZM20 12L20 13L21 13L21 14L22 14L22 15L21 15L21 16L20 16L20 17L21 17L21 18L22 18L22 19L21 19L21 20L22 20L22 19L23 19L23 18L22 18L22 17L23 17L23 16L22 16L22 15L23 15L23 14L22 14L22 13L21 13L21 12ZM28 13L28 14L29 14L29 13ZM18 14L18 15L17 15L17 16L18 16L18 17L19 17L19 15L20 15L20 14ZM24 14L24 15L25 15L25 16L24 16L24 17L25 17L25 18L24 18L24 19L25 19L25 21L26 21L26 20L27 20L27 19L26 19L26 17L25 17L25 16L27 16L27 15L25 15L25 14ZM2 17L2 19L4 19L4 17ZM6 17L6 18L7 18L7 19L6 19L6 20L7 20L7 19L8 19L8 18L7 18L7 17ZM9 17L9 18L10 18L10 19L9 19L9 20L8 20L8 21L9 21L9 20L10 20L10 21L11 21L11 22L13 22L13 23L12 23L12 24L14 24L14 23L15 23L15 22L16 22L16 20L18 20L18 19L16 19L16 20L15 20L15 19L13 19L13 18L12 18L12 17L11 17L11 18L10 18L10 17ZM28 17L28 18L29 18L29 17ZM19 18L19 19L20 19L20 18ZM10 19L10 20L11 20L11 19ZM12 19L12 21L15 21L15 20L13 20L13 19ZM21 21L21 24L24 24L24 21ZM22 22L22 23L23 23L23 22ZM25 23L25 25L24 25L24 26L25 26L25 25L26 25L26 24L27 24L27 25L28 25L28 24L27 24L27 23ZM13 25L13 26L14 26L14 27L13 27L13 28L14 28L14 27L15 27L15 26L16 26L16 25L15 25L15 26L14 26L14 25ZM22 27L22 28L23 28L23 27ZM24 27L24 28L25 28L25 27ZM26 27L26 28L27 28L27 27ZM0 0L0 7L7 7L7 0ZM1 1L1 6L6 6L6 1ZM2 2L2 5L5 5L5 2ZM22 0L22 7L29 7L29 0ZM23 1L23 6L28 6L28 1ZM24 2L24 5L27 5L27 2ZM0 22L0 29L7 29L7 22ZM1 23L1 28L6 28L6 23ZM2 24L2 27L5 27L5 24Z" fill="#000000"/></g></g></svg>
